<svg width="12" height="33" viewBox="0 0 12 33" fill="none" xmlns="http://www.w3.org/2000/svg">
<path d="M11.8323 27.7795C12.0557 27.5637 12.0557 27.2044 11.8323 26.9809C11.6164 26.7651 11.2571 26.7651 11.0418 26.9809L6.99247 31.0302L6.99247 0.559062C6.99196 0.247577 6.74439 -2.29725e-07 6.4329 -2.4334e-07C6.12142 -2.56956e-07 5.86579 0.247577 5.86579 0.559062L5.86579 31.0302L1.82403 26.9809C1.60061 26.7651 1.24081 26.7651 1.02544 26.9809C0.802019 27.2044 0.802019 27.5642 1.02544 27.7795L6.03335 32.7874C6.24923 33.0109 6.60852 33.0109 6.82389 32.7874L11.8323 27.7795Z" fill="white"/>
</svg>
