<svg width="22" height="76" viewBox="0 0 22 76" fill="none" xmlns="http://www.w3.org/2000/svg">
<path d="M21.6691 64.0644C22.1103 63.5666 22.1103 62.738 21.6691 62.2228C21.2429 61.7249 20.5335 61.7249 20.1082 62.2228L12.1128 71.5612L12.1128 1.2893C12.1118 0.570957 11.623 -7.42365e-07 11.0079 -7.86364e-07C10.3929 -8.30363e-07 9.88818 0.570956 9.88818 1.2893L9.88818 71.5612L1.90769 62.2228C1.46653 61.7249 0.756119 61.7249 0.330864 62.2228C-0.110288 62.738 -0.110288 63.5678 0.330864 64.0644L10.219 75.6136C10.6453 76.1288 11.3547 76.1288 11.78 75.6136L21.6691 64.0644Z" fill="white"/>
</svg>
