<svg width="80" height="80" viewBox="0 0 80 80" fill="none" xmlns="http://www.w3.org/2000/svg">
<path fill-rule="evenodd" clip-rule="evenodd" d="M0 0L20.9239 0C11.2427 4.89265 3.85166 13.1685 0 23.2661L0 0ZM62.3552 0L80 0V32.8432L43.7215 32.8432V51.0085L66.9356 51.0085C64.8536 62.4593 55.2245 71.2036 41.067 71.2036C23.3182 71.2036 12.1796 56.7859 12.1796 39.5055C12.1796 23.11 23.2141 8.9525 41.067 8.9525C51.581 8.9525 59.9089 13.1685 66.2069 21.7567L78.0742 13.5329C73.8061 7.59922 68.4971 3.07092 62.3552 0ZM80 58.5556V80H62.5114C71.7241 75.3155 77.0852 67.6122 80 58.5556ZM19.8308 80H0L0 57.2023C3.69551 67.1438 10.566 75.2114 19.8308 80Z" fill="#FEFEFE" fill-opacity="0.3"/>
</svg>
